<svg width="32" height="32" viewBox="0 0 32 32" fill="none" xmlns="http://www.w3.org/2000/svg">
<path d="M11.1247 4.99672C11.6683 4.26875 12.5236 3.84 13.4322 3.84H18.5677C19.4764 3.84 20.3317 4.26875 20.8753 4.99672L21.6353 6.01446C21.8166 6.25712 22.1016 6.40003 22.4045 6.40003H25.92C27.5105 6.40003 28.8 7.68946 28.8 9.28003V22.4C28.8 23.9907 27.5105 25.28 25.92 25.28H6.08001C4.48943 25.28 3.20001 23.9907 3.20001 22.4V9.28003C3.20001 7.68946 4.48943 6.40003 6.08001 6.40003H9.59544C9.8983 6.40003 10.1834 6.25712 10.3646 6.01446L11.1247 4.99672ZM16 20.4826C18.8277 20.4826 21.12 18.1902 21.12 15.3626C21.12 12.5348 18.8277 10.2425 16 10.2425C13.1723 10.2425 10.88 12.5348 10.88 15.3626C10.88 18.1902 13.1723 20.4826 16 20.4826Z" fill="#F6CBCB"/>
</svg>
