<svg width="32" height="32" viewBox="0 0 32 32" fill="none" xmlns="http://www.w3.org/2000/svg">
<path d="M19.5551 12.3266C19.5551 14.5075 17.7871 16.2755 15.6063 16.2755C13.4254 16.2755 11.6575 14.5075 11.6575 12.3266C11.6575 10.1458 13.4254 8.37782 15.6063 8.37782C17.7871 8.37782 19.5551 10.1458 19.5551 12.3266Z" stroke="#F6CBCB" stroke-width="1.92" stroke-linecap="round" stroke-linejoin="round"/>
<path d="M24.2103 12.3292C24.2103 19.0204 19.1168 24.6881 16.7781 26.9377C16.1253 27.5657 15.1314 27.567 14.4768 26.9408C12.1271 24.6932 7.00186 19.0235 7.00186 12.3292C7.00186 7.57724 10.8541 3.72501 15.6061 3.72501C20.3581 3.72501 24.2103 7.57724 24.2103 12.3292Z" stroke="#F6CBCB" stroke-width="1.92" stroke-linecap="round" stroke-linejoin="round"/>
</svg>
